<!--?xml version="1.0" encoding="utf-8"?-->
<!-- Generator: Adobe Illustrator 18.1.1, SVG Export Plug-In . SVG Version: 6.00 Build 0)  -->

<svg version="1.1" id="_x32_" xmlns="http://www.w3.org/2000/svg" xmlns:xlink="http://www.w3.org/1999/xlink" x="0px" y="0px" viewBox="0 0 512 512" style="width: 48px; height: 48px; opacity: 1;" xml:space="preserve">
<style type="text/css">
	.st0{fill:#4B4B4B;}
</style>
<g>
	<path class="st0" d="M474.595,443.981c0,0-31.513-145.926-54.728-217.252c-5.652-17.346-12.286-34.34-20.594-49.908
		c42.099-8.96,62.813-39.34,56.626-71.172c-7.698-39.59-48.387-41.789-68.155-34.143c-6.538,2.527-12.664-2.019-15.62-6.649
		c-20.997-43.482-62.486-38.387-89.979-27.39c-9.948,3.978-17.638,1.435-23.102-11.212c-9.89-22.879-62.676-40.474-92.806-9.957
		c-40.955,41.479-13.24,93.578,17.132,122.084c-33.361,25.569-49.323,60.656-55.415,85.022
		c-69.66,29.855-96.199,102.857-89.566,132.686c21.565-19.898,56.395-44.77,97.058-43.73c7.363,2.32,13.308,7.534,15.722,17.2
		c6.641,26.53,4.983,182.44,4.983,182.44l49.754-51.412l38.147,48.095l39.812-59.702l43.112,53.06l28.198-63.018l68.01,51.411
		l-3.317-68.002L474.595,443.981z M222.762,268.406c-12.148,0-21.994-9.845-21.994-21.994c0-12.149,9.847-21.994,21.994-21.994
		c12.149,0,21.994,9.845,21.994,21.994C244.756,258.56,234.911,268.406,222.762,268.406z" style="fill: rgb(184, 77, 69);"></path>
</g>
</svg>
